<?xml version="1.0" standalone="no"?>
<!DOCTYPE svg PUBLIC "-//W3C//DTD SVG 20010904//EN"
 "http://www.w3.org/TR/2001/REC-SVG-20010904/DTD/svg10.dtd">
<svg version="1.0" xmlns="http://www.w3.org/2000/svg"
 width="150.000000pt" height="150.000000pt" viewBox="0 0 150.000000 150.000000"
 preserveAspectRatio="xMidYMid meet">
<metadata>
Created by potrace 1.14, written by Peter Selinger 2001-2017
</metadata>
<g transform="translate(0.000000,150.000000) scale(0.100000,-0.100000)"
fill="#000000" stroke="none">
<path d="M0 750 l0 -750 750 0 750 0 0 750 0 750 -750 0 -750 0 0 -750z m331
35 l16 -70 11 41 c7 22 15 54 18 72 5 27 11 32 34 32 26 0 29 -4 46 -72 20
-80 17 -82 44 30 9 35 15 42 35 42 29 0 29 -1 11 -66 -8 -27 -22 -75 -31 -107
-15 -54 -18 -58 -43 -55 -24 3 -28 9 -41 66 -8 34 -17 62 -21 62 -4 0 -13 -28
-21 -62 -13 -57 -17 -63 -41 -66 -24 -3 -28 1 -38 40 -7 24 -20 74 -31 113
-10 38 -19 71 -19 73 0 2 12 2 27 0 26 -3 29 -9 44 -73z m768 25 c12 -39 13
-40 59 -40 l47 -1 -24 -20 c-13 -11 -30 -23 -38 -27 -11 -7 -11 -15 2 -51 20
-58 20 -57 -19 -27 -42 32 -43 32 -88 1 l-37 -25 16 46 c14 43 14 46 -3 59
-63 45 -63 44 -12 45 46 0 47 1 59 40 7 22 15 40 19 40 4 0 12 -18 19 -40z"/>
</g>
</svg>
